<svg class="svg-icon" style="width: 1em; height: 1em;vertical-align: middle;fill: currentColor;overflow: hidden;" viewBox="0 0 1024 1024" version="1.1" xmlns="http://www.w3.org/2000/svg"><path d="M554.666667 349.866667c4.266667 4.266667 8.533333 6.4 14.933333 6.4 6.4 0 10.666667-2.133333 14.933333-6.4 23.466667-25.6 36.266667-61.866667 36.266667-98.133334 0-83.2-66.133333-149.333333-149.333333-149.333333s-149.333333 66.133333-149.333334 149.333333c0 36.266667 12.8 68.266667 36.266667 96 8.533333 8.533333 21.333333 10.666667 29.866667 2.133334 8.533333-8.533333 10.666667-21.333333 2.133333-29.866667-17.066667-19.2-25.6-40.533333-25.6-66.133333 0-59.733333 46.933333-106.666667 106.666667-106.666667s106.666667 46.933333 106.666666 106.666667c0 25.6-8.533333 49.066667-25.6 68.266666-6.4 6.4-6.4 21.333333 2.133334 27.733334z"  /><path d="M322.133333 418.133333c4.266667 0 10.666667-2.133333 14.933334-6.4 8.533333-8.533333 8.533333-21.333333 0-29.866666-34.133333-34.133333-53.333333-81.066667-53.333334-130.133334 0-104.533333 83.2-187.733333 187.733334-187.733333S661.333333 147.2 661.333333 251.733333c0 49.066667-19.2 93.866667-53.333333 130.133334-8.533333 8.533333-8.533333 21.333333 0 29.866666 8.533333 8.533333 21.333333 8.533333 29.866667 0 40.533333-42.666667 64-100.266667 64-160C704 123.733333 599.466667 21.333333 473.6 21.333333S243.2 123.733333 243.2 251.733333c0 59.733333 23.466667 117.333333 64 160 4.266667 4.266667 8.533333 6.4 14.933333 6.4z"  /><path d="M825.6 586.666667c-8.533333-40.533333-29.866667-64-61.866667-66.133334-10.666667 0-21.333333 0-32 4.266667-8.533333-29.866667-34.133333-51.2-66.133333-51.2-14.933333 0-29.866667 4.266667-40.533333 12.8-12.8-17.066667-34.133333-29.866667-55.466667-29.866667-8.533333 0-19.2 2.133333-27.733333 6.4v-194.133333c0-38.4-32-70.4-70.4-70.4-38.4 0-70.4 32-70.4 70.4v292.266667l-51.2 14.933333c-40.533333 10.666667-70.4 49.066667-70.4 91.733333 0 38.4 0 66.133333 2.133333 85.333334 8.533333 76.8 51.2 134.4 83.2 179.2 19.2 25.6 36.266667 49.066667 36.266667 64h42.666666c0-27.733333-19.2-55.466667-44.8-87.466667-29.866667-40.533333-68.266667-93.866667-74.666666-157.866667-2.133333-17.066667-2.133333-44.8-2.133334-81.066666 0-23.466667 17.066667-44.8 38.4-51.2l40.533334-10.666667v130.133333h42.666666v-469.333333c0-14.933333 12.8-27.733333 27.733334-27.733333s27.733333 12.8 27.733333 27.733333v356.266667h42.666667v-96c0-14.933333 12.8-27.733333 27.733333-27.733334 14.933333 0 27.733333 12.8 27.733333 27.733334v98.133333h42.666667v-81.066667c0-14.933333 12.8-27.733333 27.733333-27.733333s27.733333 12.8 27.733334 27.733333v96h42.666666v-68.266666c6.4-4.266667 14.933333-6.4 25.6-6.4 6.4 0 17.066667 2.133333 23.466667 32 29.866667 145.066667-8.533333 270.933333-29.866667 339.2-8.533333 27.733333-12.8 44.8-12.8 57.6h42.666667c0-6.4 6.4-25.6 10.666667-44.8 19.2-76.8 59.733333-211.2 27.733333-364.8z"  /></svg>