<svg width="64" height="64" viewBox="0 0 64 64" fill="none" xmlns="http://www.w3.org/2000/svg">
<path d="M32 2.56C48.2598 2.56 61.44 15.7402 61.44 32C61.44 48.2598 48.2598 61.44 32 61.44C15.7402 61.44 2.56 48.2598 2.56 32C2.56 15.7402 15.7402 2.56 32 2.56ZM42.1555 44C42.697 42.3386 45.2339 25.7805 45.5475 22.5178C45.6422 21.5296 45.3299 20.873 44.7181 20.5798C43.9782 20.224 42.8826 20.4019 41.6115 20.8602C39.8682 21.4886 17.5808 30.9517 16.2931 31.4995C15.072 32.0179 13.9174 32.5837 13.9174 33.4029C13.9174 33.9789 14.2592 34.3027 15.2013 34.6394C16.1818 34.9888 18.6509 35.7376 20.1088 36.1395C21.513 36.5274 23.1117 36.1907 24.0077 35.6339C24.9574 35.0438 35.9181 27.7094 36.7053 27.0669C37.4912 26.4243 38.1184 27.2474 37.4758 27.8912C36.8333 28.5338 29.3094 35.8362 28.3174 36.8474C27.113 38.0749 27.968 39.3472 28.7757 39.8566C29.6986 40.4378 36.3354 44.8896 37.335 45.6038C38.3347 46.3181 39.3485 46.6419 40.2765 46.6419C41.2045 46.6419 41.6934 45.4195 42.1555 44Z" fill="black"/>
</svg>
