<svg width="144" height="144" viewBox="0 0 144 144" fill="none" xmlns="http://www.w3.org/2000/svg">
<rect width="144" height="144" fill="#DDD9D9"/>
<path d="M123 15H21L30 117L72 129L114 117L123 15Z" fill="#0277BD"/>
<path d="M72 24V119.7L105.6 110.1L113.1 24H72Z" fill="#039BE5"/>
<path d="M99.3 39H72V51H86.7L85.8 63H72V75H85.2L84.3 88.5L72 92.7V105.3L95.7 97.5L97.8 63L99.3 39Z" fill="white"/>
<path d="M72 39V51H45.3L44.4 39H72ZM58.2 63L58.8 75H72V63H58.2ZM59.4 81H47.4L48.3 97.5L72 105.3V92.7L59.7 88.5L59.4 81Z" fill="#EEEEEE"/>
</svg>
