<svg width="144" height="144" viewBox="0 0 144 144" fill="none" xmlns="http://www.w3.org/2000/svg">
<rect width="144" height="144" fill="#DDD9D9"/>
<path d="M46.011 56.271L71.013 41.838C71.625 41.484 72.378 41.484 72.99 41.838L98.013 56.286C98.622 56.637 99 57.291 99 57.996V86.892C99 87.597 98.622 88.251 98.013 88.602L72.99 103.05C72.378 103.404 71.625 103.404 71.013 103.05L45.99 88.602C45.378 88.251 45 87.597 45 86.892V58.023C45 57.3 45.387 56.634 46.011 56.271Z" fill="#7986CB"/>
<path d="M136.086 69.453L106.635 18.219C105.567 16.365 103.59 15 101.451 15H42.549C40.41 15 38.433 16.365 37.362 18.219L7.91397 69.342C6.84297 71.196 6.84297 73.533 7.91397 75.387L37.365 126.201C38.433 128.052 40.41 129 42.549 129H101.451C103.59 129 105.567 128.082 106.635 126.228L136.086 75.33C137.157 73.479 137.157 71.307 136.086 69.453ZM109.98 95.463L73.068 116.76C72.417 117.135 71.616 117.135 70.965 116.76L34.02 95.463C33.39 95.097 33 94.425 33 93.696V51.189C33 50.46 33.39 49.785 34.023 49.419L70.929 28.125C71.58 27.75 72.381 27.75 73.032 28.125L109.899 49.377C110.58 49.773 111 50.499 111 51.288V93.696C111 94.425 110.61 95.1 109.98 95.463Z" fill="#3949AB"/>
</svg>
