<svg width="144" height="144" viewBox="0 0 144 144" fill="none" xmlns="http://www.w3.org/2000/svg">
<rect width="144" height="144" fill="#DDD9D9"/>
<path d="M0 72C0 32.2356 32.2356 0 72 0C111.764 0 144 32.2356 144 72C144 111.764 111.764 144 72 144C32.2356 144 0 111.764 0 72Z" fill="#333333"/>
<path d="M57.6 115.2C65.553 115.2 72 108.753 72 100.8V86.3997H57.6C49.647 86.3997 43.2 92.847 43.2 100.8C43.2 108.753 49.647 115.2 57.6 115.2Z" fill="#0ACF83"/>
<path d="M43.2 72C43.2 64.047 49.647 57.6 57.6 57.6H72V86.4H57.6C49.647 86.4 43.2 79.9527 43.2 72Z" fill="#A259FF"/>
<path d="M43.2 43.2C43.2 35.247 49.647 28.7999 57.6 28.7999H72V57.6H57.6C49.647 57.6 43.2 51.1527 43.2 43.2Z" fill="#F24E1E"/>
<path d="M72 28.7999H86.4C94.353 28.7999 100.8 35.247 100.8 43.2C100.8 51.1527 94.353 57.6 86.4 57.6H72V28.7999Z" fill="#FF7262"/>
<path d="M100.8 72C100.8 79.9527 94.353 86.4 86.4 86.4C78.447 86.4 72 79.9527 72 72C72 64.047 78.447 57.6 86.4 57.6C94.353 57.6 100.8 64.047 100.8 72Z" fill="#1ABCFE"/>
</svg>
