<svg width="144" height="144" viewBox="0 0 144 144" fill="none" xmlns="http://www.w3.org/2000/svg">
<rect width="144" height="144" fill="#DDD9D9"/>
<path d="M24 111L69.702 25.308C70.665 23.502 73.269 23.535 74.184 25.368L90 57L24 111Z" fill="#FF8F00"/>
<path d="M24 110.976L40.638 8.37899C41.073 5.69399 44.679 5.11199 45.939 7.52399L78 68.976L24 110.976Z" fill="#FFA000"/>
<path d="M24.024 110.958L24.624 110.487L77.211 67.464L62.379 39.036L24.024 110.958Z" fill="#FF6F00"/>
<path d="M24 111L103.998 33.861C105.675 32.244 108.474 33.198 108.816 35.502L120 111L75 137.229C73.173 138.255 70.944 138.255 69.117 137.229L24 111Z" fill="#FFC400"/>
</svg>
