<svg width="144" height="144" viewBox="0 0 144 144" fill="none" xmlns="http://www.w3.org/2000/svg">
<rect width="144" height="144" fill="#DDD9D9"/>
<path d="M72 13.5C39.6922 13.5 13.5 39.6922 13.5 72C13.5 99.6233 32.652 122.76 58.3987 128.893C57.0667 128.576 55.746 128.221 54.45 127.816V114.412C54.45 114.412 52.2562 115.144 49.3312 115.144C41.148 115.144 37.7482 107.842 36.9 104.175C36.3847 101.941 35.0392 99.8235 33.5947 98.5298C31.869 96.9908 31.0613 96.9862 31.05 96.4597C31.0275 95.355 32.5305 95.4 33.2437 95.4C36.9 95.4 39.672 99.2902 40.959 101.302C44.1473 106.267 47.5695 107.1 49.3312 107.1C51.525 107.1 53.4195 106.771 54.7245 106.141C55.3275 101.893 57.2175 98.109 60.3 95.4C46.5817 92.6573 36.9 84.789 36.9 72C36.9 65.412 39.5438 59.3573 43.9493 54.468C43.4993 53.1923 42.75 50.6115 42.75 46.4062C42.75 43.6275 42.9435 40.2165 44.2125 36.9C44.2125 36.9 52.5555 36.9585 60.4237 44.4105C64.0552 43.353 67.941 42.75 72 42.75C76.059 42.75 79.9448 43.353 83.5763 44.4105C91.4445 36.9585 99.7875 36.9 99.7875 36.9C101.063 40.2165 101.25 43.6275 101.25 46.4062C101.25 50.94 100.647 53.5838 100.278 54.7245C104.549 59.5688 107.1 65.529 107.1 72C107.1 84.789 97.4183 92.6573 83.7 95.4C87.363 98.6175 89.55 103.304 89.55 108.562V127.816C88.254 128.223 86.9355 128.576 85.6012 128.893C111.348 122.76 130.5 99.6233 130.5 72C130.5 39.6922 104.308 13.5 72 13.5ZM76.0792 130.343C74.7315 130.437 73.3725 130.5 72 130.5C73.3725 130.5 74.7292 130.435 76.0792 130.343ZM85.0185 129.029C82.3995 129.625 79.7152 130.043 76.9747 130.275C79.7152 130.043 82.3995 129.623 85.0185 129.029ZM72 130.5C70.6275 130.5 69.2685 130.437 67.9208 130.343C69.2708 130.435 70.6275 130.5 72 130.5ZM67.023 130.275C64.2848 130.043 61.5983 129.625 58.9815 129.029C61.6005 129.623 64.2848 130.043 67.023 130.275Z" fill="black"/>
</svg>
