<svg width="144" height="144" viewBox="0 0 144 144" fill="none" xmlns="http://www.w3.org/2000/svg">
<rect width="144" height="144" fill="#DDD9D9"/>
<path d="M18 126V18H126V126H18Z" fill="#FFD600"/>
<path d="M88.614 98.841C90.69 102.213 92.946 105.444 97.725 105.444C101.739 105.444 103.845 103.449 103.845 100.689C103.845 97.386 101.667 96.213 97.251 94.29L94.83 93.258C87.843 90.294 83.196 86.58 83.196 78.735C83.196 71.505 88.731 66.003 97.38 66.003C103.539 66.003 107.964 68.136 111.156 73.722L103.614 78.543C101.955 75.579 100.161 74.412 97.38 74.412C94.542 74.412 92.745 76.203 92.745 78.543C92.745 81.435 94.545 82.605 98.7 84.396L101.121 85.428C109.356 88.935 114 92.517 114 100.569C114 109.245 107.148 114 97.95 114C88.953 114 83.844 109.485 81 103.896L88.614 98.841ZM53.856 99.087C55.374 101.805 57.681 103.896 60.999 103.896C64.173 103.896 66 102.642 66 97.767V66H75.999V99.303C75.999 109.404 70.14 114 61.584 114C53.853 114 48.273 108.762 45.999 103.896L53.856 99.087Z" fill="#000001"/>
</svg>
