<svg width="144" height="144" viewBox="0 0 144 144" fill="none" xmlns="http://www.w3.org/2000/svg">
<rect width="144" height="144" fill="#DDD9D9"/>
<path fill-rule="evenodd" clip-rule="evenodd" d="M0.218214 0H13.5989V97.5819H66.5138V109.612H0.217651V0H0.218214ZM103.006 28.7401C112.13 27.4033 121.862 29.4081 129.16 36.0921C137.067 42.1073 141.325 52.801 141.932 62.8266C143.149 74.8571 141.932 86.8882 135.85 96.9139C130.376 104.934 121.862 110.281 112.13 110.949C103.006 112.286 92.6672 110.281 84.7604 103.597C77.4615 96.9139 73.8121 86.8882 72.5956 76.8626C71.3797 66.1683 72.5956 54.1378 78.678 44.7809C83.5439 35.424 93.2752 29.4081 103.006 28.7401V28.7401ZM104.831 40.1025C110.913 39.4338 117.604 41.4386 122.47 46.1177C126.727 51.4642 129.16 58.1482 129.768 64.8315C130.376 72.1842 129.768 80.2043 126.727 86.8882C123.686 93.5716 118.212 98.2506 111.522 99.5868C105.439 100.924 98.7496 98.9187 94.4917 94.9084C89.6257 90.898 86.5848 84.8828 85.3684 78.8675C84.1519 70.1787 84.7604 61.4899 87.8013 53.4697C90.8422 46.1177 97.5326 40.7705 104.831 40.1018L104.831 40.1025Z" fill="black"/>
<path fill-rule="evenodd" clip-rule="evenodd" d="M0.218262 126.99H143.757V143.7H0.218262V126.99Z" fill="#3492FF"/>
</svg>
