<svg width="256" height="256" viewBox="0 0 256 256" fill="none" xmlns="http://www.w3.org/2000/svg">
<rect width="256" height="256" fill="#DDD9D9"/>
<path fill-rule="evenodd" clip-rule="evenodd" d="M128 256C198.692 256 256 198.692 256 128C256 57.3075 198.692 0 128 0C57.3075 0 0 57.3075 0 128C0 198.692 57.3075 256 128 256ZM128 236.8C67.9114 236.8 19.2 188.089 19.2 128C19.2 67.9114 67.9114 19.2 128 19.2C188.089 19.2 236.8 67.9114 236.8 128C236.8 188.089 188.089 236.8 128 236.8Z" fill="#376660"/>
<path fill-rule="evenodd" clip-rule="evenodd" d="M128 230.4C184.554 230.4 230.4 184.554 230.4 128C230.4 71.446 184.554 25.6 128 25.6C71.446 25.6 25.6 71.446 25.6 128C25.6 184.554 71.446 230.4 128 230.4ZM128 32C124.465 32 121.6 34.8797 121.6 38.4438V121.6H76.781C73.2569 121.6 70.4 124.441 70.4 128C70.4 131.535 73.3163 134.4 76.7706 134.4H134.4V38.4056C134.4 34.8679 131.559 32 128 32Z" fill="#529990"/>
</svg>
