<svg width="144" height="144" viewBox="0 0 144 144" fill="none" xmlns="http://www.w3.org/2000/svg">
<rect width="144" height="144" fill="#DDD9D9"/>
<path d="M101.954 71.3642C102.052 70.8846 102.105 70.3996 102.114 69.9134V115.235L73.1713 93.5186L58.6101 82.6234L49.8456 76.0124L45.9488 73.0937L44.5134 72.0184L44.4094 71.9445C44.0558 71.7112 43.716 71.4666 43.3902 71.2447C43.0643 71.0228 42.78 70.8294 42.3917 70.9261C42.1148 71.0092 41.9085 71.2021 41.8439 71.4381V28.7679L42.142 28.9897L48.0844 33.399C51.2116 35.6747 54.3665 37.9505 57.4868 40.2262C61.9245 43.4881 66.3484 46.769 70.7583 50.0689C74.2484 52.6708 77.7338 55.2765 81.2147 57.886C85.375 60.9981 89.4799 64.1443 93.6403 67.2337C95.5124 68.6219 97.3984 69.9816 99.2914 71.3471C99.6936 71.6372 100.089 71.916 100.498 72.2119C100.779 72.3796 101.145 72.4182 101.469 72.3143C101.661 72.227 101.801 72.079 101.857 71.9046C101.912 71.6885 101.912 71.5405 101.954 71.3642Z" fill="#4C9717"/>
<path d="M41.7815 71.6885C41.7029 72.2054 41.6797 72.727 41.7121 73.2473C41.7121 87.7552 41.7121 102.263 41.8439 116.765V121.931C41.6899 124.425 40.1999 126.734 37.7737 128.241C33.0517 131.478 28.6486 135.017 24.0931 138.419C22.1862 139.841 20.2933 141.264 18.331 142.652C16.3687 144.04 11.3208 144.211 8.52641 142.294C6.40019 140.779 4.42039 139.132 2.60484 137.367C1.0028 136.051 0.0770373 134.281 0.0184904 132.422C0.0184904 132.013 -0.0231131 131.563 0.0184904 131.068C0.0184904 130.215 0.0184905 129.362 0.05316 128.502C0.0878296 126.056 0.05316 123.604 0.05316 121.158V41.3698C0.0471441 40.76 0.135684 40.1521 0.316649 39.5606C0.500612 39.0461 0.732423 38.544 1.01004 38.0586C1.39901 37.3455 1.86791 36.6637 2.41069 36.0218L13.505 26.9188L20.5706 21.127C20.9466 20.8153 21.3765 20.5507 21.8465 20.3419C22.5313 20.0258 23.2898 19.8319 24.0723 19.773C26.3928 19.4222 28.7895 19.7847 30.8051 20.7914C31.322 21.0502 31.8073 21.3493 32.2543 21.6846L41.8439 28.7508V71.4211C41.8154 71.5089 41.7946 71.5982 41.7815 71.6885Z" fill="#5FBC21"/>
<path d="M142.538 106.513L122.159 121.874C122.08 121.924 121.996 121.969 121.91 122.011L121.834 122.056L121.695 122.125C117.999 123.972 113.259 123.589 110.074 121.186L108.846 120.304L102.086 115.235V21.4399C102.197 20.6491 102.363 19.8583 102.55 19.0845C103.036 17.0648 105.199 16.0635 106.849 14.8005C110.434 12.0696 114.13 9.44106 117.784 6.76706C120.301 4.92371 122.811 3.07466 125.349 1.24268C127.561 -0.356028 131.846 -0.276377 133.926 0.713573C134.454 0.966067 134.938 1.274 135.369 1.62956L137.712 3.4843L139.605 4.96922L141.332 6.34036C141.8 6.69467 142.214 7.0939 142.566 7.52944C143.385 8.63492 143.794 9.91181 143.745 11.2048C143.71 19.5454 143.786 27.886 143.807 36.238C143.849 50.4045 143.886 64.571 143.918 78.7376C143.918 85.9972 143.934 93.2549 143.967 100.511C143.967 100.846 143.967 101.176 143.967 101.506C144.071 103.668 144.015 105.096 142.538 106.513Z" fill="#5FBC21"/>
</svg>
