<svg width="144" height="144" viewBox="0 0 144 144" fill="none" xmlns="http://www.w3.org/2000/svg">
<rect width="144" height="144" fill="#DDD9D9"/>
<path d="M47.916 115.803C47.2136 114.509 46.9649 113.016 47.2095 111.564H17.3115L61.722 33.3765L80.4375 66.7215L86.3235 62.3295L67.842 29.1015C67.2238 27.9655 66.3357 26.999 65.2559 26.2872C64.176 25.5754 62.9377 25.1402 61.65 25.02C60.3533 25.0735 59.098 25.4921 58.0288 26.2278C56.9596 26.9634 56.1199 27.9861 55.6065 29.178L10.6065 108.346C9.92202 109.456 9.52746 110.72 9.45905 112.022C9.39064 113.325 9.65058 114.623 10.215 115.798C10.8994 116.889 11.8767 117.765 13.0352 118.327C14.1937 118.889 15.4869 119.113 16.767 118.975H54.45C53.1724 119.118 51.8805 118.898 50.7219 118.341C49.5633 117.784 48.5848 116.912 47.898 115.825L47.916 115.803Z" fill="#00C58E"/>
<path d="M133.362 108.504L97.1505 44.2035C96.5619 43.0671 95.6962 42.0973 94.6336 41.3839C93.571 40.6706 92.3457 40.2365 91.071 40.122C89.8043 40.1758 88.5788 40.5878 87.5369 41.3103C86.495 42.0327 85.6794 43.036 85.185 44.2035L80.397 51.8535V66.7035L91.0665 48.384L126.846 111.704H113.234C113.45 112.986 113.258 114.303 112.685 115.47L112.568 115.704C111.83 116.749 110.847 117.597 109.704 118.171C108.561 118.746 107.294 119.03 106.016 118.998H127.319C128.598 119.033 129.866 118.751 131.009 118.176C132.153 117.601 133.136 116.752 133.871 115.704C134.446 114.568 134.699 113.297 134.602 112.027C134.505 110.758 134.062 109.539 133.322 108.504H133.362Z" fill="#108775"/>
<path d="M113.549 115.65L113.666 115.416L113.981 114.79C114.365 113.787 114.46 112.696 114.255 111.64C114.054 110.489 113.642 109.384 113.04 108.382L84.753 59.3325L80.478 51.8805H80.4015L76.086 59.2965L47.8395 108.346C47.289 109.347 46.9175 110.436 46.7415 111.564C46.4749 113.012 46.7098 114.507 47.4075 115.803C48.1186 116.894 49.1185 117.766 50.296 118.322C51.4735 118.878 52.7823 119.097 54.0765 118.953H106.763C108.08 118.995 109.388 118.713 110.571 118.131C111.754 117.55 112.777 116.687 113.549 115.618V115.65ZM80.397 66.762L106.29 111.6H54.504L80.397 66.762Z" fill="#2F495E"/>
</svg>
