<svg width="144" height="144" viewBox="0 0 144 144" fill="none" xmlns="http://www.w3.org/2000/svg">
<rect width="144" height="144" fill="#DDD9D9"/>
<g clip-path="url(#clip0_36_2)">
<path d="M51.426 140.574C51.426 141.024 51.3374 141.469 51.1652 141.885C50.993 142.301 50.7407 142.678 50.4225 142.997C50.1044 143.315 49.7267 143.567 49.3111 143.739C48.8954 143.911 48.4499 144 48 144H13.716C12.8066 144 11.9344 143.639 11.2913 142.996C10.6483 142.353 10.287 141.48 10.287 140.571C10.287 139.662 10.6483 138.789 11.2913 138.146C11.9344 137.503 12.8066 137.142 13.716 137.142H48C49.896 137.142 51.426 138.678 51.426 140.574ZM48 123.42H41.142C40.2326 123.42 39.3604 123.781 38.7173 124.424C38.0743 125.067 37.713 125.94 37.713 126.849C37.713 127.758 38.0743 128.631 38.7173 129.274C39.3604 129.917 40.2326 130.278 41.142 130.278H48C48.9094 130.278 49.7816 129.917 50.4247 129.274C51.0677 128.631 51.429 127.758 51.429 126.849C51.429 125.94 51.0677 125.067 50.4247 124.424C49.7816 123.781 48.9094 123.42 48 123.42ZM13.716 130.278H27.42C28.3294 130.278 29.2016 129.917 29.8447 129.274C30.4877 128.631 30.849 127.758 30.849 126.849C30.849 125.94 30.4877 125.067 29.8447 124.424C29.2016 123.781 28.3294 123.42 27.42 123.42H13.716C12.8066 123.42 11.9344 123.781 11.2913 124.424C10.6483 125.067 10.287 125.94 10.287 126.849C10.287 127.758 10.6483 128.631 11.2913 129.274C11.9344 129.917 12.8066 130.278 13.716 130.278ZM48 109.716H13.716C12.8066 109.716 11.9344 110.077 11.2913 110.72C10.6483 111.363 10.287 112.236 10.287 113.145C10.287 114.054 10.6483 114.927 11.2913 115.57C11.9344 116.213 12.8066 116.574 13.716 116.574H48C48.9094 116.574 49.7816 116.213 50.4247 115.57C51.0677 114.927 51.429 114.054 51.429 113.145C51.429 112.236 51.0677 111.363 50.4247 110.72C49.7816 110.077 48.9094 109.716 48 109.716V109.716ZM96 96H34.284C33.3746 96 32.5024 96.3613 31.8593 97.0043C31.2163 97.6474 30.855 98.5196 30.855 99.429C30.855 100.338 31.2163 101.211 31.8593 101.854C32.5024 102.497 33.3746 102.858 34.284 102.858H96C96.9094 102.858 97.7816 102.497 98.4247 101.854C99.0677 101.211 99.429 100.338 99.429 99.429C99.429 98.5196 99.0677 97.6474 98.4247 97.0043C97.7816 96.3613 96.9094 96 96 96V96ZM13.716 102.858H20.574C21.4834 102.858 22.3556 102.497 22.9987 101.854C23.6417 101.211 24.003 100.338 24.003 99.429C24.003 98.5196 23.6417 97.6474 22.9987 97.0043C22.3556 96.3613 21.4834 96 20.574 96H13.716C12.8066 96 11.9344 96.3613 11.2913 97.0043C10.6483 97.6474 10.287 98.5196 10.287 99.429C10.287 100.338 10.6483 101.211 11.2913 101.854C11.9344 102.497 12.8066 102.858 13.716 102.858V102.858ZM116.574 82.284H96C95.0906 82.284 94.2184 82.6453 93.5753 83.2883C92.9323 83.9314 92.571 84.8036 92.571 85.713C92.571 86.6224 92.9323 87.4946 93.5753 88.1377C94.2184 88.7807 95.0906 89.142 96 89.142H116.574C117.483 89.142 118.356 88.7807 118.999 88.1377C119.642 87.4946 120.003 86.6224 120.003 85.713C120.003 84.8036 119.642 83.9314 118.999 83.2883C118.356 82.6453 117.483 82.284 116.574 82.284V82.284ZM54.858 89.142H82.284C83.1934 89.142 84.0656 88.7807 84.7087 88.1377C85.3517 87.4946 85.713 86.6224 85.713 85.713C85.713 84.8036 85.3517 83.9314 84.7087 83.2883C84.0656 82.6453 83.1934 82.284 82.284 82.284H54.858C53.9486 82.284 53.0764 82.6453 52.4333 83.2883C51.7903 83.9314 51.429 84.8036 51.429 85.713C51.429 86.6224 51.7903 87.4946 52.4333 88.1377C53.0764 88.7807 53.9486 89.142 54.858 89.142ZM13.716 89.142H41.142C42.0514 89.142 42.9236 88.7807 43.5667 88.1377C44.2097 87.4946 44.571 86.6224 44.571 85.713C44.571 84.8036 44.2097 83.9314 43.5667 83.2883C42.9236 82.6453 42.0514 82.284 41.142 82.284H13.716C12.8066 82.284 11.9344 82.6453 11.2913 83.2883C10.6483 83.9314 10.287 84.8036 10.287 85.713C10.287 86.6224 10.6483 87.4946 11.2913 88.1377C11.9344 88.7807 12.8066 89.142 13.716 89.142V89.142ZM123.42 68.58H68.58C67.6714 68.58 66.7999 68.941 66.1574 69.5835C65.5149 70.226 65.154 71.0974 65.154 72.006C65.154 72.9146 65.5149 73.786 66.1574 74.4285C66.7999 75.071 67.6714 75.432 68.58 75.432H123.432C124.341 75.432 125.212 75.071 125.855 74.4285C126.497 73.786 126.858 72.9146 126.858 72.006C126.858 71.0974 126.497 70.226 125.855 69.5835C125.212 68.941 124.341 68.58 123.432 68.58H123.42ZM58.284 72C58.284 71.0914 57.923 70.22 57.2805 69.5775C56.638 68.935 55.7666 68.574 54.858 68.574H34.284C33.3754 68.574 32.5039 68.935 31.8614 69.5775C31.2189 70.22 30.858 71.0914 30.858 72C30.858 72.9086 31.2189 73.78 31.8614 74.4225C32.5039 75.065 33.3754 75.426 34.284 75.426H54.858C55.7666 75.426 56.638 75.065 57.2805 74.4225C57.923 73.78 58.284 72.9086 58.284 72ZM13.716 75.426H20.574C21.4826 75.426 22.354 75.065 22.9965 74.4225C23.639 73.78 24 72.9086 24 72C24 71.0914 23.639 70.22 22.9965 69.5775C22.354 68.935 21.4826 68.574 20.574 68.574H13.716C12.8074 68.574 11.9359 68.935 11.2934 69.5775C10.6509 70.22 10.29 71.0914 10.29 72C10.29 72.9086 10.6509 73.78 11.2934 74.4225C11.9359 75.065 12.8074 75.426 13.716 75.426V75.426ZM130.284 54.858H96C95.0906 54.858 94.2184 55.2193 93.5753 55.8623C92.9323 56.5054 92.571 57.3776 92.571 58.287C92.571 59.1964 92.9323 60.0686 93.5753 60.7117C94.2184 61.3547 95.0906 61.716 96 61.716H130.284C131.193 61.716 132.066 61.3547 132.709 60.7117C133.352 60.0686 133.713 59.1964 133.713 58.287C133.713 57.3776 133.352 56.5054 132.709 55.8623C132.066 55.2193 131.193 54.858 130.284 54.858V54.858ZM13.716 61.716H48C48.9094 61.716 49.7816 61.3547 50.4247 60.7117C51.0677 60.0686 51.429 59.1964 51.429 58.287C51.429 57.3776 51.0677 56.5054 50.4247 55.8623C49.7816 55.2193 48.9094 54.858 48 54.858H13.716C12.8066 54.858 11.9344 55.2193 11.2913 55.8623C10.6483 56.5054 10.287 57.3776 10.287 58.287C10.287 59.1964 10.6483 60.0686 11.2913 60.7117C11.9344 61.3547 12.8066 61.716 13.716 61.716V61.716ZM92.574 44.574C92.5732 45.0241 92.6613 45.47 92.8332 45.886C93.0051 46.302 93.2574 46.68 93.5757 46.9983C93.894 47.3166 94.272 47.5689 94.688 47.7408C95.104 47.9127 95.5499 48.0008 96 48H130.284C131.193 48 132.066 47.6387 132.709 46.9957C133.352 46.3526 133.713 45.4804 133.713 44.571C133.713 43.6616 133.352 42.7894 132.709 42.1463C132.066 41.5033 131.193 41.142 130.284 41.142H96C95.5496 41.142 95.1036 41.2308 94.6875 41.4034C94.2715 41.5759 93.8935 41.8288 93.5753 42.1476C93.2571 42.4663 93.0049 42.8447 92.833 43.2611C92.6612 43.6774 92.5732 44.1236 92.574 44.574V44.574ZM41.142 41.142C40.2326 41.142 39.3604 41.5033 38.7173 42.1463C38.0743 42.7894 37.713 43.6616 37.713 44.571C37.713 45.4804 38.0743 46.3526 38.7173 46.9957C39.3604 47.6387 40.2326 48 41.142 48H48C48.9094 48 49.7816 47.6387 50.4247 46.9957C51.0677 46.3526 51.429 45.4804 51.429 44.571C51.429 43.6616 51.0677 42.7894 50.4247 42.1463C49.7816 41.5033 48.9094 41.142 48 41.142H41.142V41.142ZM13.716 48H27.42C28.3294 48 29.2016 47.6387 29.8447 46.9957C30.4877 46.3526 30.849 45.4804 30.849 44.571C30.849 43.6616 30.4877 42.7894 29.8447 42.1463C29.2016 41.5033 28.3294 41.142 27.42 41.142H13.716C12.8066 41.142 11.9344 41.5033 11.2913 42.1463C10.6483 42.7894 10.287 43.6616 10.287 44.571C10.287 45.4804 10.6483 46.3526 11.2913 46.9957C11.9344 47.6387 12.8066 48 13.716 48V48ZM113.142 30.858C113.142 32.748 114.678 34.284 116.574 34.284H123.426C124.335 34.284 125.208 33.9227 125.851 33.2797C126.494 32.6366 126.855 31.7644 126.855 30.855C126.855 29.9456 126.494 29.0734 125.851 28.4303C125.208 27.7873 124.335 27.426 123.426 27.426H116.58C116.129 27.4252 115.682 27.5134 115.266 27.6856C114.849 27.8578 114.47 28.1106 114.151 28.4294C113.833 28.7483 113.58 29.1269 113.408 29.5437C113.235 29.9604 113.147 30.4071 113.148 30.858H113.142ZM106.284 30.858C106.285 30.4076 106.197 29.9614 106.025 29.5451C105.853 29.1287 105.601 28.7503 105.283 28.4316C104.964 28.1128 104.587 27.8599 104.17 27.6874C103.754 27.5148 103.308 27.426 102.858 27.426H75.42C74.5106 27.426 73.6384 27.7873 72.9953 28.4303C72.3523 29.0734 71.991 29.9456 71.991 30.855C71.991 31.7644 72.3523 32.6366 72.9953 33.2797C73.6384 33.9227 74.5106 34.284 75.42 34.284H102.852C103.761 34.284 104.632 33.923 105.275 33.2805C105.917 32.638 106.278 31.7666 106.278 30.858H106.284ZM13.716 34.284H61.716C62.6254 34.284 63.4976 33.9227 64.1407 33.2797C64.7837 32.6366 65.145 31.7644 65.145 30.855C65.145 29.9456 64.7837 29.0734 64.1407 28.4303C63.4976 27.7873 62.6254 27.426 61.716 27.426H13.716C12.8066 27.426 11.9344 27.7873 11.2913 28.4303C10.6483 29.0734 10.287 29.9456 10.287 30.855C10.287 31.7644 10.6483 32.6366 11.2913 33.2797C11.9344 33.9227 12.8066 34.284 13.716 34.284V34.284ZM44.574 17.142C44.574 19.038 46.104 20.574 48 20.574H116.574C117.483 20.574 118.356 20.2127 118.999 19.5697C119.642 18.9266 120.003 18.0544 120.003 17.145C120.003 16.2356 119.642 15.3634 118.999 14.7203C118.356 14.0773 117.483 13.716 116.574 13.716H48C47.0914 13.716 46.2199 14.077 45.5774 14.7195C44.9349 15.362 44.574 16.2334 44.574 17.142V17.142ZM13.716 20.574H34.284C35.1934 20.574 36.0656 20.2127 36.7087 19.5697C37.3517 18.9266 37.713 18.0544 37.713 17.145C37.713 16.2356 37.3517 15.3634 36.7087 14.7203C36.0656 14.0773 35.1934 13.716 34.284 13.716H13.716C12.8066 13.716 11.9344 14.0773 11.2913 14.7203C10.6483 15.3634 10.287 16.2356 10.287 17.145C10.287 18.0544 10.6483 18.9266 11.2913 19.5697C11.9344 20.2127 12.8066 20.574 13.716 20.574V20.574ZM13.716 6.858H96C96.9094 6.858 97.7816 6.49673 98.4247 5.85367C99.0677 5.21061 99.429 4.33843 99.429 3.429C99.429 2.51957 99.0677 1.64739 98.4247 1.00433C97.7816 0.361269 96.9094 0 96 0L13.716 0C12.8066 0 11.9344 0.361269 11.2913 1.00433C10.6483 1.64739 10.287 2.51957 10.287 3.429C10.287 4.33843 10.6483 5.21061 11.2913 5.85367C11.9344 6.49673 12.8066 6.858 13.716 6.858V6.858Z" fill="#0000FF"/>
</g>
<defs>
<clipPath id="clip0_36_2">
<rect width="144" height="144" fill="white"/>
</clipPath>
</defs>
</svg>
