<svg width="144" height="144" viewBox="0 0 144 144" fill="none" xmlns="http://www.w3.org/2000/svg">
<rect width="144" height="144" fill="#DDD9D9"/>
<path d="M119.601 77.868C114.987 77.892 110.991 78.999 107.643 80.652C106.419 78.207 105.177 76.056 104.97 74.457C104.727 72.591 104.445 71.475 104.739 69.252C105.033 67.029 106.32 63.879 106.302 63.642C106.284 63.405 106.014 62.274 103.353 62.253C100.692 62.235 98.415 62.766 98.148 63.468C97.881 64.17 97.368 65.751 97.05 67.401C96.585 69.813 91.737 78.42 88.986 82.92C88.086 81.162 87.321 79.614 87.162 78.39C86.919 76.524 86.637 75.408 86.931 73.185C87.225 70.962 88.512 67.812 88.494 67.575C88.476 67.338 88.206 66.207 85.545 66.186C82.884 66.168 80.607 66.699 80.34 67.401C80.073 68.103 79.785 69.744 79.242 71.334C78.696 72.921 72.255 87.276 70.566 90.999C69.705 92.895 68.958 94.419 68.43 95.457C68.427 95.454 68.427 95.451 68.427 95.451C68.427 95.451 68.394 95.52 68.34 95.637C67.887 96.522 67.62 97.011 67.62 97.011C67.62 97.011 67.623 97.017 67.629 97.029C67.269 97.68 66.885 98.283 66.696 98.283C66.564 98.283 66.297 96.552 66.753 94.176C67.713 89.196 70.014 81.432 69.993 81.162C69.981 81.024 70.422 79.671 68.49 78.963C66.612 78.276 65.943 79.422 65.772 79.425C65.607 79.428 65.484 79.83 65.484 79.83C65.484 79.83 67.575 71.097 61.494 71.097C57.69 71.097 52.422 75.258 49.827 79.029C48.189 79.923 44.682 81.837 40.965 83.88C39.537 84.666 38.079 85.467 36.696 86.229C36.603 86.124 36.507 86.022 36.411 85.917C29.034 78.048 15.402 72.483 15.978 61.902C16.188 58.056 17.526 47.928 42.177 35.646C62.37 25.584 78.537 28.353 81.33 34.488C85.32 43.257 72.69 59.55 51.72 61.902C43.731 62.799 39.522 59.7 38.475 58.548C37.374 57.333 37.209 57.279 36.798 57.507C36.129 57.879 36.552 58.95 36.798 59.589C37.425 61.218 39.993 64.107 44.373 65.547C48.228 66.813 57.609 67.506 68.952 63.117C81.66 58.203 91.581 44.529 88.665 33.102C85.701 21.48 66.429 17.658 48.189 24.138C37.32 27.996 25.569 34.05 17.118 41.952C7.071 51.348 5.469 59.529 6.129 62.946C8.475 75.09 25.212 82.998 31.914 88.857C31.584 89.04 31.272 89.211 30.99 89.367C27.63 91.029 14.871 97.707 11.679 104.76C8.058 112.761 12.255 118.503 15.033 119.277C23.64 121.671 32.472 117.363 37.221 110.283C41.967 103.206 41.388 93.987 39.21 89.781C39.183 89.73 39.153 89.679 39.126 89.625C39.993 89.112 40.878 88.59 41.754 88.074C43.464 87.069 45.144 86.133 46.599 85.341C45.783 87.573 45.186 90.252 44.877 94.119C44.511 98.661 46.374 104.532 48.81 106.842C49.884 107.859 51.174 107.883 51.99 107.883C54.825 107.883 56.118 105.525 57.543 102.735C59.289 99.315 60.84 95.331 60.84 95.331C60.84 95.331 58.896 106.089 64.194 106.089C66.126 106.089 68.067 103.584 68.934 102.309C68.937 102.324 68.937 102.33 68.937 102.33C68.937 102.33 68.988 102.246 69.087 102.081C69.288 101.775 69.402 101.58 69.402 101.58C69.402 101.58 69.405 101.559 69.411 101.523C70.188 100.176 71.91 97.104 74.49 92.037C77.826 85.491 81.024 77.289 81.024 77.289C81.024 77.289 81.321 79.293 82.296 82.611C82.869 84.561 84.087 86.718 85.05 88.788C84.276 89.862 83.802 90.477 83.802 90.477C83.802 90.477 83.805 90.489 83.814 90.51C83.196 91.332 82.503 92.217 81.777 93.081C79.143 96.216 76.008 99.798 75.588 100.83C75.093 102.048 75.21 102.942 76.167 103.665C76.866 104.19 78.108 104.274 79.407 104.187C81.774 104.028 83.436 103.44 84.258 103.083C85.539 102.63 87.03 101.919 88.428 100.89C91.011 98.991 92.568 96.276 92.418 92.676C92.334 90.693 91.704 88.728 90.903 86.874C91.137 86.538 91.371 86.196 91.608 85.854C95.679 79.902 98.838 73.362 98.838 73.362C98.838 73.362 99.135 75.366 100.11 78.684C100.602 80.361 101.577 82.194 102.453 83.988C98.625 87.099 96.252 90.714 95.427 93.084C93.903 97.47 95.097 99.456 97.335 99.909C98.349 100.113 99.783 99.648 100.86 99.192C102.201 98.748 103.812 98.007 105.318 96.9C107.901 95.001 110.385 92.343 110.235 88.746C110.166 87.108 109.722 85.482 109.119 83.922C112.365 82.569 116.565 81.819 121.917 82.443C133.398 83.784 135.648 90.951 135.219 93.951C134.787 96.951 132.381 98.601 131.574 99.099C130.77 99.597 130.524 99.771 130.59 100.14C130.689 100.677 131.061 100.659 131.748 100.542C132.693 100.383 137.775 98.103 137.994 92.565C138.267 85.527 131.532 77.805 119.601 77.868ZM31.11 107.7C27.306 111.849 21.996 113.415 19.716 112.095C17.256 110.67 18.231 104.562 22.896 100.158C25.74 97.476 29.412 95.004 31.848 93.483C32.403 93.15 33.216 92.661 34.206 92.067C34.371 91.974 34.464 91.923 34.464 91.923L34.461 91.917C34.653 91.803 34.848 91.686 35.049 91.563C36.75 97.83 35.103 103.347 31.11 107.7ZM58.815 88.869C57.492 92.097 54.72 100.359 53.031 99.915C51.582 99.534 50.7 93.255 52.743 87.075C53.769 83.964 55.965 80.247 57.255 78.804C59.331 76.482 61.617 75.723 62.172 76.665C62.877 77.865 59.646 86.844 58.815 88.869ZM81.702 99.789C81.141 100.083 80.625 100.266 80.388 100.125C80.211 100.02 80.619 99.633 80.619 99.633C80.619 99.633 83.481 96.552 84.609 95.151C85.266 94.335 86.025 93.366 86.853 92.286C86.859 92.394 86.862 92.502 86.862 92.607C86.856 96.297 83.292 98.787 81.702 99.789ZM99.333 95.769C98.913 95.472 98.985 94.509 100.362 91.506C100.902 90.327 102.138 88.344 104.28 86.448C104.529 87.228 104.679 87.975 104.676 88.671C104.649 93.315 101.337 95.049 99.333 95.769Z" fill="#F06292"/>
</svg>
