<svg width="144" height="144" viewBox="0 0 144 144" fill="none" xmlns="http://www.w3.org/2000/svg">
<rect width="144" height="144" fill="#DDD9D9"/>
<path d="M140.551 0H45.9073V48.2068H92.4765C94.1356 48.2068 95.4815 49.5741 95.4815 51.2595V97.9149H143.556V3.05827C143.557 2.24768 143.241 1.46978 142.678 0.896085C142.114 0.322386 141.349 0 140.551 0V0Z" fill="#8E75FF"/>
<path opacity="0.405" d="M45.9018 0V48.2069H1.50262C0.892515 48.2058 0.343405 47.8306 0.112258 47.2571C-0.118889 46.6835 0.0136503 46.0249 0.447851 45.5895L45.9018 0ZM98.0414 143.555C97.6092 143.986 96.9645 144.112 96.4056 143.874C95.8467 143.637 95.4825 143.082 95.4814 142.466V97.9149H143.556L98.0414 143.549V143.555Z" fill="#8E75FF"/>
<path opacity="0.405" d="M45.9019 48.2068H93.9817C94.8058 48.2068 95.4815 48.8876 95.4815 49.7303V97.9149H48.9123C47.2527 97.9149 45.9073 96.5481 45.9073 94.8622V48.2068H45.9019Z" fill="#8E75FF"/>
</svg>
