<svg width="144" height="144" viewBox="0 0 144 144" fill="none" xmlns="http://www.w3.org/2000/svg">
<rect width="144" height="144" fill="#DDD9D9"/>
<g clip-path="url(#clip0_36_2)">
<path d="M71.4711 143.998C33.1035 143.734 -0.257104 111.892 0.00149347 71.4365C0.250115 32.5102 32.5978 -0.263794 72.6244 0.00160062C111.525 0.260092 144.345 32.5501 143.997 72.1092C144.32 111.309 111.338 144.275 71.4711 143.998V143.998ZM71.4711 143.998C33.1035 143.734 -0.257104 111.892 0.00149347 71.4365C0.250115 32.5102 32.5978 -0.263794 72.6244 0.00160062C111.525 0.260092 144.345 32.5501 143.997 72.1092C144.32 111.309 111.338 144.275 71.4711 143.998V143.998Z" fill="white"/>
<path d="M71.5414 134.436C38.2682 134.206 9.33953 106.593 9.5638 71.5114C9.77964 37.7542 37.8312 9.33284 72.5418 9.5639C106.276 9.78807 134.737 37.7902 134.435 72.0952C134.714 106.089 106.114 134.676 71.5414 134.436V134.436ZM71.5414 134.436C38.2682 134.206 9.33953 106.593 9.5638 71.5114C9.77964 37.7542 37.8312 9.33284 72.5418 9.5639C106.276 9.78807 134.737 37.7902 134.435 72.0952C134.714 106.089 106.114 134.676 71.5414 134.436V134.436Z" fill="#49A32B"/>
<path d="M95.2466 71.9753C95.0865 74.9511 92.4869 77.4221 89.9247 76.9908C89.9125 76.9908 89.8995 76.9908 89.8864 76.9908C87.0486 76.9947 84.7453 74.6968 84.7423 71.8589C84.8388 69.0134 87.1987 66.7707 90.045 66.8189C92.8829 66.8327 95.3998 69.2309 95.2466 71.9753V71.9753ZM49.6132 100.811C50.6832 100.843 51.754 100.82 52.988 100.82V108.574C45.3184 109.871 39.0008 107.693 37.4505 101.21C36.9197 98.8267 36.5934 96.4017 36.4739 93.9622C36.3093 91.3793 36.5942 88.7674 36.3973 86.1892C35.852 79.0949 34.9328 76.673 28.125 76.3375V67.5083C28.6129 67.3942 29.1077 67.3099 29.6056 67.254C33.3381 67.0701 34.9114 65.9258 35.7463 62.2492C36.1262 60.1834 36.3514 58.0924 36.418 55.9929C36.7137 51.9333 36.6087 47.8079 37.2851 43.8142C38.2624 38.0388 41.8479 35.2331 47.7703 34.9191C49.4554 34.8287 51.1458 34.9053 53.0554 34.9053V42.8314C52.2695 42.8873 51.5495 43.0015 50.8341 42.98C46.0078 42.8322 45.7581 44.4759 45.4058 48.4712C45.1859 50.9766 45.4893 53.525 45.3184 56.0388C45.14 58.5404 44.8053 61.029 44.3166 63.4893C43.6203 67.0548 41.4282 69.7066 38.3904 71.957C44.2875 75.7944 44.9584 81.7574 45.3414 87.8123C45.5475 91.0661 45.4533 94.3428 45.7834 97.5805C46.0407 100.094 47.0181 100.735 49.6132 100.811ZM54.5835 66.8189H54.6746C57.4941 66.8656 59.743 69.1888 59.6962 72.009C59.6962 72.1017 59.6932 72.1936 59.6878 72.2856C59.5293 75.0415 57.167 77.1463 54.4111 76.9878C54.3001 76.9901 54.1898 76.9878 54.0787 76.9824C51.2722 76.843 49.1099 74.4547 49.2493 71.6483C49.3887 68.8418 51.777 66.6795 54.5835 66.8189V66.8189ZM72.1538 66.8189C75.2375 66.7952 77.2857 68.7936 77.3018 71.8421C77.3186 74.9725 75.3769 76.9755 72.3131 76.9885C69.1972 77.0023 67.1459 75.0315 67.1291 72.0014C67.1199 71.8467 67.1176 71.6919 67.1222 71.5372C67.2087 68.8449 69.4614 66.7324 72.1538 66.8189ZM108.941 62.957C109.762 66.0208 111.359 67.0977 114.584 67.2448C115.112 67.2693 115.639 67.3589 116.363 67.4393V76.2662C115.971 76.3949 115.569 76.4914 115.161 76.5542C110.838 76.8231 108.868 78.5963 108.432 82.9301C108.153 85.6967 108.176 88.494 107.984 91.2706C107.904 94.3191 107.627 97.3592 107.154 100.372C106.051 105.83 102.643 108.553 97.0129 108.885C95.2007 108.993 93.3754 108.902 91.4214 108.902V101.013C92.4731 100.948 93.4014 100.858 94.3321 100.836C97.6961 100.755 98.8857 99.6708 99.0504 96.3297C99.2327 92.6593 99.3123 88.9842 99.4762 85.313C99.7144 80.0064 101.167 75.2659 106.111 71.9562C103.282 69.9394 101.011 67.4968 100.423 64.2032C99.7114 60.211 99.4816 56.1307 99.0986 52.0827C98.9094 50.059 98.9186 48.0177 98.721 45.9956C98.5081 43.8126 97.0083 43.0574 95.0214 43.0084C93.8832 42.9808 92.7404 43.003 91.2851 43.003V35.299C100.572 33.7571 106.986 36.847 107.582 45.7321C107.832 49.4631 107.795 53.2117 108.034 56.9427C108.139 58.9724 108.443 60.9869 108.941 62.957V62.957Z" fill="white"/>
</g>
<defs>
<clipPath id="clip0_36_2">
<rect width="144" height="144" fill="white"/>
</clipPath>
</defs>
</svg>
