<svg width="144" height="144" viewBox="0 0 144 144" fill="none" xmlns="http://www.w3.org/2000/svg">
<rect width="144" height="144" fill="#DDD9D9"/>
<path d="M126 18H18V126H126V18Z" fill="#1976D2"/>
<path d="M82.47 66H42.681V75.792H56.952V120H68.259V75.792H82.47V66Z" fill="white"/>
<path d="M117.582 78.252C117.582 78.252 112.221 74.676 106.161 74.676C100.101 74.676 97.92 77.556 97.92 80.634C97.92 88.578 120.063 87.783 120.063 103.77C120.063 128.397 86.301 117.474 86.301 117.474V105.66C86.301 105.66 92.757 110.526 100.5 110.526C108.243 110.526 107.949 105.462 107.949 104.766C107.949 97.419 86.004 97.419 86.004 81.132C86.004 58.989 117.978 67.725 117.978 67.725L117.582 78.252Z" fill="white"/>
</svg>
